HIERARCHY
ROOT Hips
{
  OFFSET 5.70366 102.999 -1.77653
  CHANNELS 6 Xposition Yposition Zposition Zrotation Xrotation Yrotation
  JOINT RightUpLeg
  {
    OFFSET -8.9458 -8.66707 0.101652
    CHANNELS 3 Zrotation Xrotation Yrotation
    JOINT RightLeg
    {
      OFFSET 0 -44.4227 1.3727
      CHANNELS 3 Zrotation Xrotation Yrotation
      JOINT RightFoot
      {
        OFFSET 0.253549 -42.0924 -1.46059
        CHANNELS 3 Zrotation Xrotation Yrotation
        JOINT RightToes
        {
          OFFSET 0.04 -4.41509 8.4991
          CHANNELS 3 Zrotation Xrotation Yrotation
          End Site
          {
            OFFSET -0.08 -0.137448 9.77979
          }
        }
      }
    }
  }
  JOINT Spine
  {
    OFFSET 0 11.8905 0
    CHANNELS 3 Zrotation Xrotation Yrotation
    JOINT Spine1
    {
      OFFSET 0 25.6574 0.127663
      CHANNELS 3 Zrotation Xrotation Yrotation
      JOINT HEad
      {
        OFFSET 0 8.73416 0.011341
        CHANNELS 3 Zrotation Xrotation Yrotation
        End Site
        {
          OFFSET -0.29 12.7742 2.51395
        }
      }
      JOINT LeftShoulder1
      {
        OFFSET 8.99 -0.362252 -0.22
        CHANNELS 3 Zrotation Xrotation Yrotation
        JOINT LeftArm
        {
          OFFSET 10.2827 -0.00337999 0.322123
          CHANNELS 3 Zrotation Xrotation Yrotation
          JOINT LeftForeArm
          {
            OFFSET 26.2597 0.099144 -1.42434
            CHANNELS 3 Zrotation Xrotation Yrotation
            JOINT LeftHand
            {
              OFFSET 22.0902 0.085362 1.02216
              CHANNELS 3 Zrotation Xrotation Yrotation
              End Site
              {
                OFFSET 13.419 -0.6 1.50291
              }
            }
          }
        }
      }
      JOINT RightShoulder
      {
        OFFSET -8.99 -0.362252 -0.22
        CHANNELS 3 Zrotation Xrotation Yrotation
        JOINT RightArm
        {
          OFFSET -10.2827 -0.00338 0.322123
          CHANNELS 3 Zrotation Xrotation Yrotation
          JOINT RightForeArm
          {
            OFFSET -26.364 0.099144 -1.42434
            CHANNELS 3 Zrotation Xrotation Yrotation
            JOINT RightHand
            {
              OFFSET -22.0324 0.085362 1.02216
              CHANNELS 3 Zrotation Xrotation Yrotation
              End Site
              {
                OFFSET -13.3284 -0.6 1.50291
              }
            }
          }
        }
      }
    }
  }
  JOINT LeftUpLeg
  {
    OFFSET 8.9458 -8.66707 0.101652
    CHANNELS 3 Zrotation Xrotation Yrotation
    JOINT LeftLeg
    {
      OFFSET 0 -44.4227 1.3727
      CHANNELS 3 Zrotation Xrotation Yrotation
      JOINT LeftFoot
      {
        OFFSET -0.253549 -42.0924 -1.46059
        CHANNELS 3 Zrotation Xrotation Yrotation
        JOINT LeftToes
        {
          OFFSET -0.04 -4.41509 8.4991
          CHANNELS 3 Zrotation Xrotation Yrotation
          End Site
          {
            OFFSET 0.08 -0.047448 9.77979
          }
        }
      }
    }
  }
}
MOTION
Frames:	8
Frame Time:	0.0416667
-209.111 104.367 -0.452432 -0.867691 -1.43157 -90.3823 -0.0360723 -6.85169 -1.65379 -1.03414 13.7716 -4.17117 -6.15367 -3.42529 0.08484 0.0462048 0.000530887 0.662642 0.0403899 4.11592 0.250879 -1.92752 0.103292 0.608411 5.4802 3.76766 10.9208 -31.684 -3.20198 12.1395 -48.8842 -21.0555 -14.1275 -5.82604 52.764 -8.931 2.20203 9.76172 -5.75019 42.3827 0.514469 -3.08849 35.2134 -18.5101 8.66321 0.993803 45.9565 14.087 1.0996 9.9973 0.846802 -0.0289206 -5.42428 2.32608 2.03378 12.4974 17.3658 -1.09983 -2.02813 0.0502373 -1.3288e-009 8.75238e-006 -1.48244e-008 
-209.287 104.368 -0.44978 -0.851387 -1.39921 -90.5654 -0.0279319 -6.72577 -1.69834 -0.991593 13.6846 -3.9479 -6.1608 -3.50165 0.079999 0.0462048 0.000530887 0.662642 -0.0256916 4.26921 0.218248 -1.8655 -0.111862 0.560185 5.68239 4.00334 9.13539 -31.4334 -3.06256 11.8271 -49.3422 -22.2901 -13.5235 -5.29255 53.9555 -8.99485 2.19741 9.76718 -5.5269 42.3497 0.491147 -3.13551 35.0132 -17.5268 8.4334 0.752304 44.8751 14.7978 0.970112 9.99278 1.05209 0.00700521 -5.29001 2.38278 2.03023 12.4421 17.4399 -1.10082 -2.05658 0.0490138 -1.3288e-009 8.75238e-006 -1.48244e-008 
-209.473 104.37 -0.459503 -0.794063 -1.4253 -90.8142 -0.112408 -6.69605 -1.82308 -0.90081 13.7035 -3.56909 -6.19723 -3.62583 0.0738984 0.0462048 0.000530887 0.662642 -0.163572 4.42237 0.215086 -1.80308 -0.51544 0.540099 6.03754 4.44242 6.74739 -31.3583 -2.95999 11.5726 -49.4758 -23.4971 -13.0202 -5.1808 54.905 -8.57394 2.16933 9.77118 -5.38639 42.4151 0.483084 -3.15277 34.6801 -16.3724 8.19737 0.623215 43.5746 15.4434 1.00504 9.99048 1.03157 -0.0114357 -5.17651 2.42785 2.01414 12.3955 17.7211 -0.949185 -2.07809 0.0484541 -1.3288e-009 8.75238e-006 -1.48244e-008 
-209.632 104.373 -0.49832 -0.642631 -1.4466 -91.1644 -0.129032 -6.81266 -1.84995 -0.864482 13.7443 -3.19054 -6.235 -3.71258 0.0726255 0.0462048 0.000530887 0.662642 -0.256284 4.31826 0.244638 -1.78366 -0.61338 0.566998 6.66077 4.67786 4.13398 -31.4875 -2.99188 11.6299 -49.4103 -24.3948 -13.1788 -5.95434 55.67 -7.18257 2.5011 9.73825 -5.54731 42.4247 0.46756 -3.18444 34.6516 -15.8864 8.37983 0.666009 43.1576 15.5828 0.914361 9.98877 1.2334 -0.018978 -5.17103 2.44459 2.02113 12.3318 18.1075 -0.822196 -2.10767 0.0485061 -1.3288e-009 8.75238e-006 -1.48244e-008 
-209.777 104.376 -0.564767 -0.588588 -1.36473 -91.4831 0.00618391 -6.74041 -1.78534 -0.84515 13.6077 -2.94228 -6.26422 -3.70675 0.074026 0.0462048 0.000530887 0.662642 -0.234824 4.2283 0.234958 -1.77529 -0.425811 0.554958 7.11646 4.63466 2.13165 -31.5937 -3.04113 11.7372 -49.2291 -24.6255 -13.2919 -6.34588 55.9671 -6.5914 2.73497 9.71437 -5.67072 42.371 0.453094 -3.21323 34.9353 -15.8616 8.79419 0.607398 43.0615 15.6521 0.785706 9.98892 1.45628 0.135624 -5.11699 2.57826 1.99596 12.3587 18.2698 -0.911815 -2.17839 0.0491184 -1.3288e-009 8.75238e-006 -1.48244e-008 
-209.928 104.378 -0.639573 -0.572833 -1.26056 -91.6826 0.144228 -6.57772 -1.75669 -0.787117 13.4142 -2.77501 -6.29913 -3.68328 0.0747781 0.0462048 0.000530887 0.662642 -0.177742 4.19519 0.164389 -1.76047 -0.232732 0.477848 7.37601 4.50003 0.779265 -31.693 -3.07081 11.7941 -48.9066 -24.507 -13.1737 -6.06153 55.6705 -7.07589 2.38338 9.74942 -5.53468 42.3554 0.445506 -3.2285 35.1707 -15.4844 9.02231 0.196264 42.4389 16.27 0.943432 9.9947 1.19895 0.335446 -5.03952 2.74167 1.96211 12.4339 18.3201 -1.07781 -2.28179 0.0502382 -1.3288e-009 8.75238e-006 -1.48244e-008 
-210.078 104.379 -0.71701 -0.422468 -1.24977 -91.8785 0.178942 -6.61929 -1.7825 -0.731933 13.3389 -2.55818 -6.2948 -3.72845 0.0713952 0.0462048 0.000530887 0.662642 -0.153831 3.94659 0.101474 -1.79422 0.0505232 0.425454 7.66244 4.24631 -0.320313 -31.6564 -3.0771 11.8183 -48.8356 -24.4646 -13.209 -5.82198 55.3225 -7.3991 2.10502 9.77681 -5.4201 42.417 0.434937 -3.25067 35.2299 -15.0331 9.23537 -0.00322888 41.8231 16.6851 1.21877 10.0078 1.06289 0.39035 -5.07359 2.75326 1.9855 12.4195 18.4725 -1.164 -2.33466 0.0527238 -1.3288e-009 8.75238e-006 -1.48244e-008 
-210.232 104.374 -0.807252 -0.246674 -1.25955 -92.0848 0.195291 -6.71008 -1.82008 -0.672917 13.3125 -2.32507 -6.20991 -3.81579 0.0631514 0.0462048 0.000530887 0.662642 -0.165916 3.6145 0.0662376 -1.77339 0.424736 0.394749 7.89933 3.89472 -1.38412 -31.5081 -3.06186 11.8097 -49.0847 -24.4987 -13.3785 -5.63756 55.3876 -7.55059 2.14949 9.77301 -5.38487 42.4642 0.396513 -3.32921 35.2895 -14.8108 9.48337 0.00825611 41.5611 16.7618 1.39294 10.0212 1.2434 0.429747 -5.15333 2.74835 2.0037 12.4427 18.6409 -1.23311 -2.38985 0.0543095 -1.3288e-009 8.75238e-006 -1.48244e-008 
